<svg xmlns="http://www.w3.org/2000/svg" viewBox="0 0 200 200" role="img" aria-label="十二色相環示意圖">
  <g transform="translate(100,100)">
    <path d="M0 0 L86.6 -50 A100 100 0 0 1 100 0 Z" fill="#e8112d"/>
    <path d="M0 0 L100 0 A100 100 0 0 1 86.6 50 Z" fill="#e35205"/>
    <path d="M0 0 L86.6 50 A100 100 0 0 1 50 86.6 Z" fill="#f59b00"/>
    <path d="M0 0 L50 86.6 A100 100 0 0 1 0 100 Z" fill="#ffd500"/>
    <path d="M0 0 L0 100 A100 100 0 0 1 -50 86.6 Z" fill="#a8c400"/>
    <path d="M0 0 L-50 86.6 A100 100 0 0 1 -86.6 50 Z" fill="#3c9e46"/>
    <path d="M0 0 L-86.6 50 A100 100 0 0 1 -100 0 Z" fill="#00857c"/>
    <path d="M0 0 L-100 0 A100 100 0 0 1 -86.6 -50 Z" fill="#0072a3"/>
    <path d="M0 0 L-86.6 -50 A100 100 0 0 1 -50 -86.6 Z" fill="#00489a"/>
    <path d="M0 0 L-50 -86.6 A100 100 0 0 1 0 -100 Z" fill="#4b3f92"/>
    <path d="M0 0 L0 -100 A100 100 0 0 1 50 -86.6 Z" fill="#8f3f97"/>
    <path d="M0 0 L50 -86.6 A100 100 0 0 1 86.6 -50 Z" fill="#c5117f"/>
    <circle r="34" fill="#fff"/>
  </g>
</svg>
