<svg xmlns="http://www.w3.org/2000/svg" width="1280" height="900" viewBox="0 0 1280 900">
  <defs>
    <linearGradient id="bg" x1="0" y1="0" x2="0" y2="1"><stop stop-color="#071728"/><stop offset="1" stop-color="#030b16"/></linearGradient>
    <linearGradient id="scene" x1="0" y1="0" x2="1" y2="1"><stop stop-color="#0a2946"/><stop offset="0.58" stop-color="#08182b"/><stop offset="1" stop-color="#2d2417"/></linearGradient>
    <linearGradient id="gold" x1="0" y1="0" x2="1" y2="1"><stop stop-color="#c79a42"/><stop offset="1" stop-color="#6f4d19"/></linearGradient>
    <pattern id="grid" width="24" height="24" patternUnits="userSpaceOnUse"><path d="M24 0H0V24" fill="none" stroke="#2d5b80" stroke-opacity=".10"/></pattern>
    <filter id="shadow"><feDropShadow dx="0" dy="8" stdDeviation="8" flood-color="#000" flood-opacity=".35"/></filter>
  </defs><style>text{font-family:"Noto Sans TC",system-ui,sans-serif;fill:#eff7ff}.page-title{font-size:42px;font-weight:900}.page-sub{font-size:15px;fill:#a8bfd0}.block-title{font-size:17px;font-weight:900}.block-sub{font-size:11px;fill:#9fb8c9}.nav{font-size:13px}.mini{font-size:11px}.strong{font-weight:800}.metric{font-size:23px;font-weight:900;fill:#52bdff}</style>
  <rect width="1280" height="900" fill="url(#bg)"/><rect x="0" y="0" width="188" height="900" fill="#061321" stroke="#31536d"/><circle cx="94" cy="68" r="38" fill="#0c2d48" stroke="#c79a42" stroke-width="3"/><text x="94" y="124" text-anchor="middle" class="mini strong">林老師 · 教師端</text><path d="M30 164h128M30 216h128M30 268h128" stroke="#22445f"/><text x="44" y="194" class="nav">教學分析</text><text x="44" y="246" class="nav">班級管理</text><text x="44" y="298" class="nav">Live 課堂</text><text x="44" y="872" class="nav">登出</text><rect x="188" y="0" width="1092" height="140" fill="url(#scene)" stroke="#31536d"/>
    <g opacity=".6"><path d="M200 124L515.5999999999999 38L734 124L974.24 26L1266 124" fill="none" stroke="#2e6a98" stroke-width="3"/><circle cx="1050.68" cy="34" r="15" fill="#5aa7d8" opacity=".55"/></g>
    <rect x="188" y="140" width="1092" height="760" fill="#071321"/>
    <rect x="188" y="140" width="1092" height="760" fill="url(#grid)" opacity=".35"/>
  <text x="282" y="76" class="page-title">Live 課程報表</text><text x="282" y="108" class="page-sub">第一屏先回答參與、正確率、最難題與前三名，詳細資料後置</text><g><rect x="270" y="156" width="598" height="128" rx="8" fill="#164f72" stroke="#355f7e"/><rect x="270" y="156" width="4" height="128" rx="2" fill="#2aa8f6"/><text x="286" y="186" class="block-title">參與人數 / 整體正確率 / 最難題</text><g transform="translate(288 206)"><text class="metric">正式值</text><text x="180" class="metric">正式值</text><text x="370.76" class="metric">正式結論</text></g></g><g><rect x="884" y="156" width="324" height="128" rx="8" fill="#55431f" stroke="#355f7e"/><rect x="884" y="156" width="4" height="128" rx="2" fill="#c79a42"/><text x="900" y="186" class="block-title">前三名</text><g transform="translate(902 208)"><path d="M0 48V18h71.28v30M90.72000000000001 48V0h84.24000000000001v48M200.88 48V26h71.28v22" fill="#8b671f" stroke="#d5aa50"/></g></g><g><rect x="270" y="300" width="938" height="176" rx="8" fill="#0c263d" stroke="#355f7e"/><rect x="270" y="300" width="4" height="176" rx="2" fill="#396a8d"/><text x="286" y="330" class="block-title">逐題分析</text><g transform="translate(286 350)"><rect y="0" width="906" height="32" fill="#0a2238"/><line x1="12" y1="16" x2="370.44" y2="16" stroke="#8da8bb" stroke-width="4" stroke-linecap="round"/><line x1="675.36" y1="16" x2="886" y2="16" stroke="#2aa8f6" stroke-width="4" stroke-linecap="round"/><rect y="38" width="906" height="32" fill="#081b2c"/><line x1="12" y1="54" x2="476.28000000000003" y2="54" stroke="#8da8bb" stroke-width="4" stroke-linecap="round"/><line x1="675.36" y1="54" x2="886" y2="54" stroke="#2aa8f6" stroke-width="4" stroke-linecap="round"/><rect y="76" width="906" height="32" fill="#0a2238"/><line x1="12" y1="92" x2="582.1199999999999" y2="92" stroke="#8da8bb" stroke-width="4" stroke-linecap="round"/><line x1="675.36" y1="92" x2="886" y2="92" stroke="#2aa8f6" stroke-width="4" stroke-linecap="round"/></g></g><g><rect x="270" y="492" width="938" height="206" rx="8" fill="#112e44" stroke="#355f7e"/><rect x="270" y="492" width="4" height="206" rx="2" fill="#396a8d"/><text x="286" y="522" class="block-title">作答矩陣（有界橫向捲動）+ 匯出 CSV</text><g transform="translate(286 542)"><rect y="0" width="906" height="32" fill="#0a2238"/><line x1="12" y1="16" x2="370.44" y2="16" stroke="#8da8bb" stroke-width="4" stroke-linecap="round"/><line x1="675.36" y1="16" x2="886" y2="16" stroke="#2aa8f6" stroke-width="4" stroke-linecap="round"/><rect y="38" width="906" height="32" fill="#081b2c"/><line x1="12" y1="54" x2="476.28000000000003" y2="54" stroke="#8da8bb" stroke-width="4" stroke-linecap="round"/><line x1="675.36" y1="54" x2="886" y2="54" stroke="#2aa8f6" stroke-width="4" stroke-linecap="round"/><rect y="76" width="906" height="32" fill="#0a2238"/><line x1="12" y1="92" x2="582.1199999999999" y2="92" stroke="#8da8bb" stroke-width="4" stroke-linecap="round"/><line x1="675.36" y1="92" x2="886" y2="92" stroke="#2aa8f6" stroke-width="4" stroke-linecap="round"/></g></g>
  </svg>